<svg width="20" height="20" viewBox="0 0 20 20" fill="none" xmlns="http://www.w3.org/2000/svg">
<path d="M10.0002 1.66663C8.45313 1.66663 6.9694 2.28121 5.87544 3.37517C4.78147 4.46913 4.16689 5.95286 4.16689 7.49996V10.44C4.16701 10.5692 4.13706 10.6968 4.07939 10.8125L2.64856 13.6733C2.57867 13.8131 2.54566 13.9684 2.55268 14.1245C2.55971 14.2806 2.60652 14.4323 2.68868 14.5652C2.77084 14.6982 2.88562 14.8079 3.02212 14.884C3.15861 14.9601 3.31229 15 3.46856 15H16.5319C16.6882 15 16.8418 14.9601 16.9783 14.884C17.1148 14.8079 17.2296 14.6982 17.3118 14.5652C17.3939 14.4323 17.4407 14.2806 17.4478 14.1245C17.4548 13.9684 17.4218 13.8131 17.3519 13.6733L15.9219 10.8125C15.8639 10.6968 15.8337 10.5693 15.8336 10.44V7.49996C15.8336 5.95286 15.219 4.46913 14.125 3.37517C13.0311 2.28121 11.5473 1.66663 10.0002 1.66663ZM10.0002 17.5C9.48302 17.5002 8.97845 17.3401 8.55607 17.0416C8.1337 16.7431 7.8143 16.3209 7.64189 15.8333H12.3586C12.1862 16.3209 11.8668 16.7431 11.4444 17.0416C11.022 17.3401 10.5174 17.5002 10.0002 17.5Z" fill="#36404D"/>
</svg>
