<svg width="80" height="80" viewBox="0 0 80 80" fill="none" xmlns="http://www.w3.org/2000/svg">
<path d="M0 40C0 17.9086 17.9086 0 40 0C62.0914 0 80 17.9086 80 40C80 62.0914 62.0914 80 40 80C17.9086 80 0 62.0914 0 40Z" fill="white" fill-opacity="0.2"/>
<path d="M39.2083 23.825C39.2814 23.6774 39.3942 23.5532 39.5341 23.4664C39.674 23.3795 39.8353 23.3335 40 23.3335C40.1646 23.3335 40.326 23.3795 40.4659 23.4664C40.6058 23.5532 40.7186 23.6774 40.7917 23.825L44.6417 31.6233C44.8953 32.1366 45.2697 32.5807 45.7327 32.9174C46.1957 33.2541 46.7335 33.4735 47.3 33.5567L55.91 34.8167C56.0731 34.8403 56.2264 34.9091 56.3525 35.0153C56.4785 35.1215 56.5724 35.2609 56.6234 35.4177C56.6743 35.5744 56.6804 35.7423 56.641 35.9024C56.6015 36.0624 56.518 36.2082 56.4 36.3233L50.1733 42.3867C49.7627 42.7868 49.4554 43.2808 49.278 43.826C49.1007 44.3713 49.0584 44.9515 49.155 45.5167L50.625 54.0833C50.6538 54.2464 50.6362 54.4143 50.5742 54.5678C50.5121 54.7213 50.4082 54.8543 50.2742 54.9516C50.1403 55.049 49.9816 55.1066 49.8164 55.1181C49.6512 55.1296 49.4862 55.0945 49.34 55.0167L41.6433 50.97C41.1362 50.7037 40.572 50.5646 39.9992 50.5646C39.4264 50.5646 38.8621 50.7037 38.355 50.97L30.66 55.0167C30.5139 55.094 30.349 55.1288 30.1841 55.1171C30.0192 55.1054 29.8609 55.0476 29.7271 54.9503C29.5934 54.8531 29.4897 54.7203 29.4277 54.567C29.3658 54.4137 29.3481 54.2462 29.3767 54.0833L30.845 45.5183C30.942 44.9529 30.9 44.3723 30.7226 43.8267C30.5451 43.2811 30.2377 42.7869 29.8267 42.3867L23.6 36.325C23.481 36.21 23.3966 36.064 23.3566 35.9034C23.3165 35.7429 23.3224 35.5743 23.3735 35.417C23.4245 35.2596 23.5188 35.1197 23.6454 35.0133C23.7721 34.9069 23.9262 34.8381 24.09 34.815L32.6983 33.5567C33.2654 33.4742 33.804 33.2551 34.2676 32.9183C34.7313 32.5815 35.1062 32.1371 35.36 31.6233L39.2083 23.825Z" fill="white" stroke="white" stroke-width="3.33333" stroke-linecap="round" stroke-linejoin="round"/>
</svg>
