<svg width="48" height="48" viewBox="0 0 48 48" fill="none" xmlns="http://www.w3.org/2000/svg">
<path d="M0 10C0 4.47716 4.47715 0 10 0H37.9981C43.5209 0 47.9981 4.47715 47.9981 10V37.9981C47.9981 43.5209 43.5209 47.9981 37.9981 47.9981H10C4.47716 47.9981 0 43.5209 0 37.9981V10Z" fill="#DBEAFE"/>
<path d="M23 33.7295C23.304 33.9051 23.6489 33.9975 24 33.9975C24.3511 33.9975 24.696 33.9051 25 33.7295L32 29.7295C32.3037 29.5542 32.556 29.302 32.7315 28.9984C32.9071 28.6947 32.9996 28.3503 33 27.9995V19.9995C32.9996 19.6488 32.9071 19.3043 32.7315 19.0007C32.556 18.6971 32.3037 18.4449 32 18.2695L25 14.2695C24.696 14.094 24.3511 14.0016 24 14.0016C23.6489 14.0016 23.304 14.094 23 14.2695L16 18.2695C15.6963 18.4449 15.444 18.6971 15.2685 19.0007C15.0929 19.3043 15.0004 19.6488 15 19.9995V27.9995C15.0004 28.3503 15.0929 28.6947 15.2685 28.9984C15.444 29.302 15.6963 29.5542 16 29.7295L23 33.7295Z" stroke="#155DFC" stroke-width="1.99992" stroke-linecap="round" stroke-linejoin="round"/>
<path d="M24 33.999V23.999" stroke="#155DFC" stroke-width="1.99992" stroke-linecap="round" stroke-linejoin="round"/>
<path d="M15.29 18.9993L24 23.9993L32.71 18.9993" stroke="#155DFC" stroke-width="1.99992" stroke-linecap="round" stroke-linejoin="round"/>
<path d="M19.5 16.2693L28.5 21.4193" stroke="#155DFC" stroke-width="1.99992" stroke-linecap="round" stroke-linejoin="round"/>
</svg>
