<svg width="80" height="80" viewBox="0 0 80 80" fill="none" xmlns="http://www.w3.org/2000/svg">
<path d="M0 40C0 17.9086 17.9086 0 40 0C62.0914 0 80 17.9086 80 40C80 62.0914 62.0914 80 40 80C17.9086 80 0 62.0914 0 40Z" fill="#0051A9"/>
<path d="M53.3333 33.3335H26.6667C25.7462 33.3335 25 34.0797 25 35.0002V38.3335C25 39.254 25.7462 40.0002 26.6667 40.0002H53.3333C54.2538 40.0002 55 39.254 55 38.3335V35.0002C55 34.0797 54.2538 33.3335 53.3333 33.3335Z" stroke="white" stroke-width="3.33333" stroke-linecap="round" stroke-linejoin="round"/>
<path d="M40 33.3335V55.0002" stroke="white" stroke-width="3.33333" stroke-linecap="round" stroke-linejoin="round"/>
<path d="M51.6666 40V51.6667C51.6666 52.5507 51.3154 53.3986 50.6903 54.0237C50.0652 54.6488 49.2173 55 48.3333 55H31.6666C30.7825 55 29.9347 54.6488 29.3096 54.0237C28.6844 53.3986 28.3333 52.5507 28.3333 51.6667V40" stroke="white" stroke-width="3.33333" stroke-linecap="round" stroke-linejoin="round"/>
<path d="M32.4999 33.3336C31.3948 33.3336 30.335 32.8946 29.5536 32.1132C28.7722 31.3318 28.3333 30.272 28.3333 29.1669C28.3333 28.0618 28.7722 27.002 29.5536 26.2206C30.335 25.4392 31.3948 25.0002 32.4999 25.0002C34.1077 24.9722 35.6833 25.7523 37.0211 27.2388C38.359 28.7253 39.397 30.8492 39.9999 33.3336C40.6028 30.8492 41.6408 28.7253 42.9787 27.2388C44.3165 25.7523 45.8921 24.9722 47.4999 25.0002C48.605 25.0002 49.6648 25.4392 50.4462 26.2206C51.2276 27.002 51.6666 28.0618 51.6666 29.1669C51.6666 30.272 51.2276 31.3318 50.4462 32.1132C49.6648 32.8946 48.605 33.3336 47.4999 33.3336" stroke="white" stroke-width="3.33333" stroke-linecap="round" stroke-linejoin="round"/>
</svg>
