<svg width="56" height="56" viewBox="0 0 56 56" fill="none" xmlns="http://www.w3.org/2000/svg">
<path d="M0 16C0 7.16344 7.16344 0 16 0H40C48.8366 0 56 7.16344 56 16V40C56 48.8366 48.8366 56 40 56H16C7.16344 56 0 48.8366 0 40V16Z" fill="#36404D" fill-opacity="0.06"/>
<path d="M20.125 41.7812C19.4031 41.7812 18.7854 41.5244 18.2717 41.0108C17.7581 40.4972 17.5009 39.879 17.5 39.1562V26.0312C17.5 25.3094 17.7572 24.6916 18.2717 24.178C18.7862 23.6644 19.404 23.4071 20.125 23.4062H21.4375V20.7812C21.4375 18.9656 22.0776 17.4182 23.3577 16.1389C24.6378 14.8597 26.1852 14.2196 28 14.2188C29.8156 14.2188 31.3635 14.8588 32.6436 16.1389C33.9237 17.4191 34.5634 18.9665 34.5625 20.7812V23.4062H35.875C36.5969 23.4062 37.2151 23.6635 37.7296 24.178C38.2441 24.6925 38.5009 25.3102 38.5 26.0312V39.1562C38.5 39.8781 38.2432 40.4963 37.7296 41.0108C37.2159 41.5253 36.5977 41.7821 35.875 41.7812H20.125ZM28 35.2187C28.7219 35.2187 29.3401 34.9619 29.8546 34.4483C30.3691 33.9347 30.6259 33.3165 30.625 32.5937C30.625 31.8719 30.3682 31.2541 29.8546 30.7405C29.3409 30.2269 28.7227 29.9696 28 29.9687C27.2781 29.9687 26.6604 30.226 26.1467 30.7405C25.6331 31.255 25.3759 31.8727 25.375 32.5937C25.375 33.3156 25.6322 33.9338 26.1467 34.4483C26.6612 34.9628 27.279 35.2196 28 35.2187ZM24.0625 23.4062H31.9375V20.7812C31.9375 19.6875 31.5547 18.7578 30.7891 17.9922C30.0234 17.2266 29.0937 16.8437 28 16.8437C26.9062 16.8437 25.9766 17.2266 25.2109 17.9922C24.4453 18.7578 24.0625 19.6875 24.0625 20.7812V23.4062Z" fill="#36404D"/>
</svg>
