<svg width="22" height="22" viewBox="0 0 22 22" fill="none" xmlns="http://www.w3.org/2000/svg">
<path d="M4.58333 19.25C4.07917 19.25 3.64772 19.0706 3.289 18.7119C2.93028 18.3532 2.75061 17.9214 2.75 17.4167V4.58333C2.75 4.07917 2.92967 3.64772 3.289 3.289C3.64833 2.93028 4.07978 2.75061 4.58333 2.75H17.4167C17.9208 2.75 18.3526 2.92967 18.7119 3.289C19.0713 3.64833 19.2506 4.07978 19.25 4.58333V17.4167C19.25 17.9208 19.0706 18.3526 18.7119 18.7119C18.3532 19.0713 17.9214 19.2506 17.4167 19.25H4.58333ZM6.41667 15.5833H15.5833C15.7667 15.5833 15.9042 15.4993 15.9958 15.3313C16.0875 15.1632 16.0722 15.0028 15.95 14.85L13.4292 11.4812C13.3375 11.359 13.2153 11.2979 13.0625 11.2979C12.9097 11.2979 12.7875 11.359 12.6958 11.4812L10.3125 14.6667L8.61667 12.3979C8.525 12.2757 8.40278 12.2146 8.25 12.2146C8.09722 12.2146 7.975 12.2757 7.88333 12.3979L6.05 14.85C5.92778 15.0028 5.9125 15.1632 6.00417 15.3313C6.09583 15.4993 6.23333 15.5833 6.41667 15.5833Z" fill="#00A4AA"/>
</svg>
