<svg width="15" height="20" viewBox="0 0 15 20" fill="none" xmlns="http://www.w3.org/2000/svg">
<g clip-path="url(#clip0_267_174)">
<path d="M2.5 0C1.12109 0 0 1.12109 0 2.5V17.5C0 18.8789 1.12109 20 2.5 20H12.5C13.8789 20 15 18.8789 15 17.5V6.25H10C9.30859 6.25 8.75 5.69141 8.75 5V0H2.5ZM10 0V5H15L10 0ZM4.0625 7.65625H6.875C8.16797 7.65625 9.21875 8.70703 9.21875 10C9.21875 10.9961 8.59766 11.8438 7.72266 12.1836L9.40234 13.7578L10.7227 12.5469C11.0391 12.2539 11.5352 12.2773 11.8281 12.5938C12.1211 12.9102 12.0977 13.4062 11.7812 13.6992L10.5469 14.832L11.7852 15.9922C12.1016 16.2891 12.1172 16.7812 11.8203 17.0977C11.5234 17.4141 11.0312 17.4297 10.7148 17.1328L9.39062 15.8906L8.02734 17.1406C7.71094 17.4336 7.21484 17.4102 6.92188 17.0938C6.62891 16.7773 6.65234 16.2812 6.96875 15.9883L8.24219 14.8203L5.71094 12.4453C5.67578 12.4141 5.64844 12.3789 5.62109 12.3438H4.83984V14.0625C4.83984 14.4922 4.48828 14.8438 4.05859 14.8438C3.62891 14.8438 3.27734 14.4922 3.27734 14.0625V8.4375C3.27734 8.00781 3.62891 7.65625 4.05859 7.65625H4.0625ZM6.875 10.7812C7.30469 10.7812 7.65625 10.4297 7.65625 10C7.65625 9.57031 7.30469 9.21875 6.875 9.21875H4.84375V10.7812H6.875Z" fill="#36404D"/>
</g>
<defs>
<clipPath id="clip0_267_174">
<rect width="15" height="20" fill="white"/>
</clipPath>
</defs>
</svg>
