<svg width="22" height="22" viewBox="0 0 22 22" fill="none" xmlns="http://www.w3.org/2000/svg">
<path fill-rule="evenodd" clip-rule="evenodd" d="M7.68075 11.4583H6.875V15.5833C6.875 15.948 6.73013 16.2977 6.47227 16.5556C6.21441 16.8134 5.86467 16.9583 5.5 16.9583C5.13533 16.9583 4.78559 16.8134 4.52773 16.5556C4.26987 16.2977 4.125 15.948 4.125 15.5833V4.58329C4.125 3.97551 4.36644 3.39261 4.79621 2.96284C5.22598 2.53307 5.80888 2.29163 6.41667 2.29163H10.5417C11.6766 2.29083 12.7715 2.71114 13.6143 3.47119C14.4572 4.23124 14.988 5.27697 15.1042 6.40595C15.2203 7.53492 14.9134 8.66683 14.243 9.58256C13.5725 10.4983 12.5862 11.1327 11.4748 11.363L13.75 13.64L15.5283 11.8616C15.7878 11.6113 16.1352 11.4728 16.4957 11.4761C16.8562 11.4795 17.201 11.6242 17.4558 11.8793C17.7106 12.1343 17.8551 12.4793 17.8581 12.8398C17.861 13.2003 17.7223 13.5476 17.4717 13.8068L15.6952 15.5833L17.4735 17.3616C17.7238 17.6211 17.8623 17.9685 17.859 18.329C17.8557 18.6895 17.7109 19.0343 17.4558 19.2891C17.2008 19.5439 16.8559 19.6884 16.4953 19.6913C16.1348 19.6943 15.7875 19.5556 15.5283 19.305L13.75 17.5285L11.9717 19.3068C11.7122 19.5571 11.3648 19.6956 11.0043 19.6923C10.6438 19.689 10.299 19.5442 10.0442 19.2891C9.78935 19.0341 9.64491 18.6891 9.64194 18.3286C9.63898 17.9681 9.77774 17.6208 10.0283 17.3616L11.8048 15.5833L7.68075 11.4583ZM6.875 8.70829V5.04163H10.5417C11.0279 5.04163 11.4942 5.23478 11.838 5.5786C12.1818 5.92241 12.375 6.38873 12.375 6.87496C12.375 7.36119 12.1818 7.82751 11.838 8.17132C11.4942 8.51514 11.0279 8.70829 10.5417 8.70829H6.875Z" fill="#00A4AA"/>
</svg>
