<svg width="29" height="29" viewBox="0 0 29 29" fill="none" xmlns="http://www.w3.org/2000/svg">
<path d="M11.4787 20.058C9.21226 20.058 7.29473 19.2019 5.72607 17.4924C4.15741 15.7802 3.37183 13.6905 3.37183 11.2234C3.37183 8.75627 4.1549 6.66387 5.72607 4.95438C7.29724 3.24217 9.21477 2.38879 11.4787 2.38879C13.7425 2.38879 15.6601 3.2449 17.2338 4.95438C18.8049 6.6666 19.5905 8.75627 19.588 11.2234C19.588 12.219 19.4424 13.1599 19.1513 14.0434C18.8601 14.9268 18.4661 15.7091 17.9666 16.3874L24.9516 23.9994C25.18 24.2483 25.2954 24.5655 25.2954 24.9512C25.2954 25.3369 25.18 25.6541 24.9516 25.903C24.7232 26.1519 24.432 26.2778 24.0781 26.2778C23.7242 26.2778 23.4331 26.1519 23.2047 25.903L16.2198 18.2911C15.5948 18.8354 14.8795 19.2648 14.0688 19.5821C13.2581 19.8993 12.3948 20.058 11.4812 20.058H11.4787ZM11.4787 17.3392C13.0373 17.3392 14.3625 16.7457 15.4543 15.5559C16.5461 14.3661 17.0907 12.9219 17.0907 11.2234C17.0907 9.52212 16.5435 8.07795 15.4543 6.89088C14.365 5.70382 13.0398 5.10755 11.4787 5.10482C9.91753 5.10482 8.59233 5.69835 7.50305 6.89088C6.41377 8.08342 5.86663 9.52759 5.86412 11.2234C5.86161 12.9192 6.40625 14.3634 7.50305 15.5559C8.59735 16.7484 9.92255 17.342 11.4787 17.3392Z" fill="#36404D"/>
</svg>
