<svg width="26" height="31" viewBox="0 0 26 31" fill="none" xmlns="http://www.w3.org/2000/svg">
<g clip-path="url(#clip0_738_85)">
<path d="M6.68646 10.3582L2.37561 18.0115L3.65391 18.7315L7.96476 11.0782L6.68646 10.3582Z" fill="white"/>
<path d="M18.4693 16.9974L14.1585 24.6507L15.4367 25.3708L19.7476 17.7175L18.4693 16.9974Z" fill="white"/>
<path d="M13.4907 25.8275C11.8397 28.6709 8.19576 29.672 5.32047 28.0553C2.44518 26.4386 1.41588 22.8003 2.9895 19.9124L1.70885 19.1908C-0.261129 22.7843 1.02263 27.318 4.59871 29.3312C8.17479 31.3444 12.7191 30.0934 14.7665 26.5445L13.4858 25.823L13.4907 25.8275Z" fill="white"/>
<path d="M17.0673 19.4775L22.0071 10.7111C23.6373 7.8164 22.6112 4.13542 19.7116 2.50065C16.8169 0.870441 13.1359 1.89653 11.5012 4.79614L6.5661 13.5624L5.28545 12.8408L10.2252 4.07438C12.2518 0.474151 16.8284 -0.801666 20.4287 1.2249C24.0289 3.25147 25.3096 7.83264 23.2783 11.433L18.3385 20.1994L17.0579 19.4778L17.0673 19.4775Z" fill="white"/>
<path d="M21.7264 11.2041L21.7176 11.2234C20.0874 14.1181 16.4066 15.1489 13.5072 13.5189C11.8014 12.5614 10.7474 10.8894 10.4984 9.08447L9.46512 10.9208C10.0661 12.5048 11.2002 13.8994 12.7901 14.7946C16.3904 16.8212 20.967 15.5454 22.9983 11.945L23.0071 11.9257L21.7264 11.2041Z" fill="white"/>
<path d="M11.1161 3.54377L10.3961 4.82207L20.6555 10.6008L21.3755 9.32253L11.1161 3.54377Z" fill="white"/>
</g>
<defs>
<clipPath id="clip0_738_85">
<rect width="23.99" height="29.7213" fill="white" transform="translate(0 0.853519) rotate(-2.03891)"/>
</clipPath>
</defs>
</svg>
