<svg width="18" height="18" viewBox="0 0 18 18" fill="none" xmlns="http://www.w3.org/2000/svg">
<g clip-path="url(#clip0_267_169)">
<path fill-rule="evenodd" clip-rule="evenodd" d="M3.55804 -0.00134277C3.30229 -0.00134277 3.05702 0.100251 2.87618 0.28109C2.69534 0.461929 2.59375 0.707198 2.59375 0.962943C2.59375 1.21869 2.69534 1.46396 2.87618 1.6448C3.05702 1.82563 3.30229 1.92723 3.55804 1.92723H4.50046V3.43666H7.71475C7.92787 3.43666 8.13226 3.52132 8.28296 3.67202C8.43366 3.82272 8.51832 4.02711 8.51832 4.24023C8.51832 4.45335 8.43366 4.65774 8.28296 4.80844C8.13226 4.95914 7.92787 5.0438 7.71475 5.0438H4.50046V7.55351H7.71475C7.92787 7.55351 8.13226 7.63818 8.28296 7.78887C8.43366 7.93957 8.51832 8.14396 8.51832 8.35709C8.51832 8.5702 8.43366 8.7746 8.28296 8.9253C8.13226 9.07599 7.92787 9.16066 7.71475 9.16066H4.50046V11.6704H7.71475C7.82028 11.6704 7.92477 11.6912 8.02226 11.7315C8.11976 11.7719 8.20834 11.8311 8.28296 11.9057C8.35758 11.9804 8.41677 12.0689 8.45715 12.1664C8.49754 12.2639 8.51832 12.3684 8.51832 12.4739C8.51832 12.5795 8.49754 12.684 8.45715 12.7815C8.41677 12.8789 8.35758 12.9675 8.28296 13.0422C8.20834 13.1168 8.11976 13.176 8.02226 13.2163C7.92477 13.2567 7.82028 13.2775 7.71475 13.2775H4.50046V13.4999C4.50046 14.6934 4.97457 15.838 5.81848 16.6819C6.6624 17.5258 7.80699 17.9999 9.00046 17.9999C10.1939 17.9999 11.3385 17.5258 12.1824 16.6819C13.0264 15.838 13.5005 14.6934 13.5005 13.4999V1.92723H14.4429C14.6986 1.92723 14.9439 1.82563 15.1247 1.6448C15.3056 1.46396 15.4072 1.21869 15.4072 0.962943C15.4072 0.707198 15.3056 0.461929 15.1247 0.28109C14.9439 0.100251 14.6986 -0.00134277 14.4429 -0.00134277H3.55804Z" fill="#36404D"/>
</g>
<defs>
<clipPath id="clip0_267_169">
<rect width="18" height="18" fill="white"/>
</clipPath>
</defs>
</svg>
