<svg width="56" height="56" viewBox="0 0 56 56" fill="none" xmlns="http://www.w3.org/2000/svg">
<path d="M0 16C0 7.16344 7.16344 0 16 0H40C48.8366 0 56 7.16344 56 16V40C56 48.8366 48.8366 56 40 56H16C7.16344 56 0 48.8366 0 40V16Z" fill="#4A90E2" fill-opacity="0.1"/>
<mask id="mask0_249_2775" style="mask-type:luminance" maskUnits="userSpaceOnUse" x="16" y="14" width="24" height="28">
<path d="M37.0071 26.8135H18.9927C18.3294 26.8135 17.7917 27.3512 17.7917 28.0144V38.8231C17.7917 39.4864 18.3294 40.0241 18.9927 40.0241H37.0071C37.6704 40.0241 38.2081 39.4864 38.2081 38.8231V28.0144C38.2081 27.3512 37.6704 26.8135 37.0071 26.8135Z" fill="white" stroke="white" stroke-width="3" stroke-linejoin="round"/>
<path d="M21.9951 26.7848V21.984C21.9921 18.9005 24.3508 16.3166 27.4511 16.0068C30.5514 15.697 33.3844 17.762 34.0047 20.7836" stroke="white" stroke-width="3" stroke-linecap="round" stroke-linejoin="round"/>
<path d="M28 31.5889V35.1918" stroke="black" stroke-width="3" stroke-linecap="round" stroke-linejoin="round"/>
</mask>
<g mask="url(#mask0_249_2775)">
<path d="M13.5886 13.5742H42.4117V42.3973H13.5886V13.5742Z" fill="#0151A9"/>
</g>
</svg>
