<svg width="29" height="29" viewBox="0 0 29 29" fill="none" xmlns="http://www.w3.org/2000/svg">
<path d="M21.4998 7.16669H19.1109C19.1109 4.52697 16.9729 2.38892 14.3331 2.38892C11.6934 2.38892 9.55537 4.52697 9.55537 7.16669H7.16648C5.85259 7.16669 4.77759 8.24169 4.77759 9.55558V23.8889C4.77759 25.2028 5.85259 26.2778 7.16648 26.2778H21.4998C22.8137 26.2778 23.8887 25.2028 23.8887 23.8889V9.55558C23.8887 8.24169 22.8137 7.16669 21.4998 7.16669ZM11.9443 11.9445C11.9443 12.6014 11.4068 13.1389 10.7498 13.1389C10.0929 13.1389 9.55537 12.6014 9.55537 11.9445V9.55558H11.9443V11.9445ZM14.3331 4.7778C15.647 4.7778 16.722 5.8528 16.722 7.16669H11.9443C11.9443 5.8528 13.0193 4.7778 14.3331 4.7778ZM19.1109 11.9445C19.1109 12.6014 18.5734 13.1389 17.9165 13.1389C17.2595 13.1389 16.722 12.6014 16.722 11.9445V9.55558H19.1109V11.9445Z" fill="#36404D"/>
</svg>
