<svg width="109" height="100" viewBox="0 0 109 100" fill="none" xmlns="http://www.w3.org/2000/svg">
<path d="M24.9327 59.2941L19.3367 56.0632L1.90735e-05 89.5553L5.59605 92.7862L24.9327 59.2941Z" fill="#07A7AD"/>
<path d="M85.5086 60.5022L86.7562 58.3414C94.0675 45.6778 89.7224 29.4016 77.0428 22.081C64.3632 14.7605 48.1053 19.1179 40.7837 31.7992L18.635 70.1619L13.039 66.931L35.1877 28.5683C44.2885 12.8053 64.5029 7.40238 80.2462 16.4918C95.9894 25.5811 101.407 45.8065 92.3168 61.5518L91.0693 63.7126L85.4732 60.4817L85.5086 60.5022Z" fill="#07A7AD"/>
<path d="M39.1637 26.3019L35.9324 31.8987L80.8246 57.8172L84.0559 52.2204L39.1637 26.3019Z" fill="#07A7AD"/>
</svg>
