<svg width="27" height="27" viewBox="0 0 27 27" fill="none" xmlns="http://www.w3.org/2000/svg">
<path d="M24.2564 13.2307H21.522C21.0401 13.2297 20.5712 13.3865 20.1869 13.6772C19.8026 13.9679 19.5242 14.3765 19.3941 14.8405L16.803 24.0579C16.7863 24.1152 16.7515 24.1654 16.7038 24.2012C16.6561 24.237 16.5981 24.2564 16.5384 24.2564C16.4788 24.2564 16.4207 24.237 16.373 24.2012C16.3253 24.1654 16.2905 24.1152 16.2738 24.0579L10.1876 2.40354C10.1709 2.34628 10.1361 2.29599 10.0884 2.26021C10.0407 2.22442 9.98267 2.20508 9.92303 2.20508C9.86339 2.20508 9.80536 2.22442 9.75764 2.26021C9.70993 2.29599 9.67511 2.34628 9.65841 2.40354L7.06739 11.621C6.9378 12.0831 6.66096 12.4904 6.2789 12.7809C5.89684 13.0714 5.43043 13.2293 4.95046 13.2307H2.20508" stroke="#36404D" stroke-width="2.02137" stroke-linecap="round" stroke-linejoin="round"/>
</svg>
