<svg width="415" height="896" viewBox="0 0 415 896" fill="none" xmlns="http://www.w3.org/2000/svg">
<g clip-path="url(#clip0_390_708)">
<rect width="415" height="896" fill="#FBFAF7"/>
<path d="M-39.1665 -41.6042C-35.3085 -43.1076 43.9669 -26.434 48.1304 -27.6829C92.5205 -40.9752 144.963 -16.9471 193.447 -14.2262C242.68 -11.4666 264.52 -33.1176 298.986 -46.7276C369.629 -74.6178 456.636 -13.2885 468.126 -7.40707C538.956 28.8534 577.061 89.0976 585.557 142.636C594.054 196.177 572.941 243.015 539.825 282.116C506.71 321.217 467.271 351.188 432.054 350.837C396.833 350.483 365.833 319.802 339.574 325.975C313.314 332.148 241.678 395.392 236.049 396.654C222.885 408.701 209.303 419.616 195.474 427.352C154.067 450.508 110.46 445.196 76.9801 435.662C-88.9494 387.327 -138.474 172.877 -36.9093 37.9629C-24.2511 16.6066 -76.423 -27.0916 -39.1665 -41.6042Z" fill="#36404D"/>
<path d="M-39.1665 -41.6042C-35.3085 -43.1076 43.9669 -26.434 48.1304 -27.6829C92.5205 -40.9752 144.963 -16.9471 193.447 -14.2262C242.68 -11.4666 264.52 -33.1176 298.986 -46.7276C369.629 -74.6178 456.636 -13.2885 468.126 -7.40707C538.956 28.8534 577.061 89.0976 585.557 142.636C594.054 196.177 572.941 243.015 539.825 282.116C506.71 321.217 467.271 351.188 432.054 350.837C396.833 350.483 365.833 319.802 339.574 325.975C313.314 332.148 241.678 395.392 236.049 396.654C222.885 408.701 209.303 419.616 195.474 427.352C154.067 450.508 110.46 445.196 76.9801 435.662C-88.9494 387.327 -138.474 172.877 -36.9093 37.9629C-24.2511 16.6066 -76.423 -27.0916 -39.1665 -41.6042Z" fill="url(#paint0_linear_390_708)" style="mix-blend-mode:overlay"/>
</g>
<defs>
<linearGradient id="paint0_linear_390_708" x1="186.834" y1="-90.6042" x2="188.333" y2="404.896" gradientUnits="userSpaceOnUse">
<stop stop-color="#7E95B3"/>
<stop offset="1" stop-color="#36404D"/>
</linearGradient>
<clipPath id="clip0_390_708">
<rect width="415" height="896" fill="white"/>
</clipPath>
</defs>
</svg>
