<svg width="231" height="77" viewBox="0 0 231 77" fill="none" xmlns="http://www.w3.org/2000/svg">
<path d="M131.028 18.9599V18.9164C130.952 18.9164 130.876 18.9164 130.8 18.9164C119.845 18.9164 111.054 28.045 111.054 39.3254C111.054 50.6057 119.845 59.5714 130.8 59.5714C137.69 59.5714 143.743 55.9199 147.22 50.3667C147.807 49.3777 147.47 48.2149 146.557 47.5411C145.731 47.0412 144.482 47.2042 143.895 48.204C141.156 52.7684 136.179 55.583 130.789 55.583C122.41 55.583 115.444 48.867 115.031 39.9883C114.988 39.3906 114.988 38.7168 115.031 37.9778C115.075 37.2823 115.172 36.652 115.281 36.0978C115.498 34.848 116.476 30.2837 120.671 26.6648C123.377 24.3392 126.844 22.9591 130.626 22.9156V22.9373C137.863 23.1981 144.058 28.6536 145.351 36.0978H119.356V39.9992H147.666C148.742 39.9992 149.655 39.2493 149.655 38.1734V37.8365C148.85 27.5342 141.015 19.4598 131.017 18.9707" fill="white"/>
<path d="M74.2129 18.9016V20.7491C74.2129 20.7491 74.202 20.8469 74.202 20.8903V42.9947C74.202 49.9498 68.5727 55.503 61.6175 55.5791C54.7493 55.503 49.1961 49.9498 49.1961 42.9947V20.8903C49.1961 19.7275 48.2832 18.9016 47.2074 18.9016C46.1315 18.9016 45.2186 19.7275 45.2186 20.8903V42.9947C45.2186 52.1015 52.4998 59.5566 61.6175 59.5566C70.7353 59.5566 78.2555 52.1124 78.2555 42.9947V18.9016H74.2129Z" fill="white"/>
<path d="M34.2975 50.87L32.2001 52.4023H32.1567L31.8741 52.6088C29.0486 54.7932 25.5384 55.956 21.7239 55.956C12.1606 55.956 4.37957 48.4575 4.37957 39.2419C4.37957 30.0263 12.1606 22.2996 21.7239 22.2996C25.6362 22.2996 29.3746 23.5928 32.5153 26.038C32.8956 26.3423 33.3629 26.5053 33.852 26.5053C34.5584 26.5053 35.1995 26.1575 35.493 25.6902C35.8733 25.3099 36.0689 24.7774 36.0363 24.1905C36.0037 23.5494 35.6994 22.9408 35.1778 22.517C31.3307 19.561 26.5491 17.9309 21.7022 17.9309C9.7372 17.9852 0 27.5486 0 39.231C0 50.9135 9.7372 60.3029 21.7022 60.3029C26.5925 60.3029 31.3742 58.6946 35.2539 55.6734L36.9057 54.4671L34.2649 50.8591L34.2975 50.87Z" fill="white"/>
<path d="M106.979 18.9679H100.545V18.9896C96.7199 19.0983 93.4271 20.761 90.6776 23.9995C87.8304 27.3575 86.4067 31.4219 86.4067 36.171V59.5468H90.4712V36.171C90.4712 32.6282 91.4927 29.5745 93.5466 27.0206C95.6006 24.4451 98.0675 23.1736 100.958 23.1736H106.968V18.9788L106.979 18.9679Z" fill="white"/>
<path d="M159.718 18.9679H155.675V59.3403H159.718V18.9679Z" fill="white"/>
<path d="M160.392 13.2565C160.392 14.7454 159.185 15.9516 157.696 15.9516C156.208 15.9516 155.001 14.7454 155.001 13.2565C155.001 11.7677 156.208 10.5614 157.696 10.5614C159.185 10.5614 160.392 11.7677 160.392 13.2565Z" fill="white"/>
<path d="M181.648 5.92274C182.518 4.87946 184.082 4.27089 187.049 4.27089C188.19 4.27089 189.147 3.31456 189.147 2.17348C189.147 0.956332 188.19 0 187.049 0C183.648 0 180.518 0.782453 178.421 3.05374C176.41 5.41197 175.715 8.62872 175.628 12.9865V17.5183H169.966C168.825 17.5183 167.868 18.4746 167.868 19.6157C167.868 20.8328 168.825 21.7891 169.966 21.7891H175.628V59.423H179.899V21.7891H185.908C187.125 21.7891 188.093 20.8328 188.093 19.6157C188.093 18.4855 187.136 17.5183 185.908 17.5183H179.899V12.9865C179.899 9.06342 180.681 6.97687 181.637 5.92274" fill="white"/>
<path d="M230.509 18.6969C230.422 18.436 230.161 18.1752 229.987 18.0013C229.639 17.8275 229.291 17.6536 228.944 17.5667H228.422C228.335 17.5667 228.248 17.6536 228.161 17.6536H227.987C227.727 17.7405 227.379 17.9144 227.205 18.1752C227.118 18.1752 227.118 18.2622 227.031 18.2622C227.031 18.3491 226.944 18.436 226.944 18.523C226.683 18.7838 226.596 19.2185 226.596 19.5663V42.7573C226.509 50.0819 220.663 55.9177 213.349 55.9177C206.035 55.9177 200.265 50.0711 200.265 42.7573V19.5663C200.265 18.436 199.308 17.5558 198.091 17.5558C197.037 17.5558 196.081 18.436 196.081 19.5663V42.7573C196.081 52.3424 203.84 60.1017 213.338 60.1886C218.652 60.1886 223.369 57.7543 226.585 54.092V56.8849C226.499 65.6875 219.348 72.7513 210.458 72.7513C208.013 72.7513 205.579 72.1428 203.481 71.0886C203.471 71.0886 203.449 71.0886 203.438 71.0886L201.438 70.241L199.786 74.1641L202.59 75.3487L202.612 75.3052C205.057 76.2941 207.687 76.9244 210.469 76.9244C221.717 76.9244 230.78 68.0349 230.78 56.8741V19.5663C230.78 19.3054 230.693 18.9577 230.52 18.6969" fill="white"/>
</svg>
