<svg width="48" height="48" viewBox="0 0 48 48" fill="none" xmlns="http://www.w3.org/2000/svg">
<path d="M0 16C0 7.16344 7.16344 0 16 0H32C40.8366 0 48 7.16344 48 16V32C48 40.8366 40.8366 48 32 48H16C7.16344 48 0 40.8366 0 32V16Z" fill="#1856A7" fill-opacity="0.082"/>
<g clip-path="url(#clip0_253_8349)">
<path d="M22.7498 31.0833L31.0832 22.75C31.4726 22.3684 31.7824 21.9133 31.9949 21.4112C32.2074 20.9091 32.3182 20.3699 32.3209 19.8247C32.3237 19.2795 32.2183 18.7391 32.0109 18.2349C31.8036 17.7307 31.4983 17.2725 31.1128 16.887C30.7273 16.5015 30.2691 16.1962 29.7649 15.9889C29.2607 15.7815 28.7203 15.6761 28.1751 15.6789C27.6299 15.6816 27.0907 15.7924 26.5886 16.0049C26.0865 16.2174 25.6314 16.5272 25.2498 16.9166L16.9165 25.25C16.5271 25.6316 16.2172 26.0866 16.0048 26.5887C15.7923 27.0908 15.6815 27.6301 15.6788 28.1753C15.676 28.7205 15.7814 29.2608 15.9887 29.765C16.1961 30.2693 16.5014 30.7274 16.8869 31.1129C17.2724 31.4984 17.7305 31.8037 18.2348 32.0111C18.739 32.2184 19.2793 32.3238 19.8245 32.321C20.3697 32.3183 20.909 32.2075 21.4111 31.995C21.9132 31.7826 22.3682 31.4727 22.7498 31.0833Z" stroke="#1856A7" stroke-width="1.66667" stroke-linecap="round" stroke-linejoin="round"/>
<path d="M21.083 21.0834L26.9163 26.9167" stroke="#1856A7" stroke-width="1.66667" stroke-linecap="round" stroke-linejoin="round"/>
</g>
<defs>
<clipPath id="clip0_253_8349">
<rect width="20" height="20" fill="white" transform="translate(14 14)"/>
</clipPath>
</defs>
</svg>
