<svg width="342" height="8" viewBox="0 0 342 8" fill="none" xmlns="http://www.w3.org/2000/svg">
<g clip-path="url(#clip0_249_2432)">
<path d="M0 4C0 1.79086 1.79086 0 4 0H338C340.209 0 342 1.79086 342 4C342 6.20914 340.209 8 338 8H4.00001C1.79087 8 0 6.20914 0 4Z" fill="#0053AD" fill-opacity="0.1"/>
<path d="M0 4C0 1.79086 1.79086 0 4 0H112C114.209 0 116 1.79086 116 4C116 6.20914 114.209 8 112 8H4C1.79086 8 0 6.20914 0 4Z" fill="#0053AD"/>
</g>
<defs>
<clipPath id="clip0_249_2432">
<path d="M0 4C0 1.79086 1.79086 0 4 0H338C340.209 0 342 1.79086 342 4C342 6.20914 340.209 8 338 8H4.00001C1.79087 8 0 6.20914 0 4Z" fill="white"/>
</clipPath>
</defs>
</svg>
