<svg width="48" height="48" viewBox="0 0 48 48" fill="none" xmlns="http://www.w3.org/2000/svg">
<path d="M0 10C0 4.47716 4.47715 0 10 0H37.9981C43.5209 0 47.9981 4.47715 47.9981 10V37.9981C47.9981 43.5209 43.5209 47.9981 37.9981 47.9981H10C4.47716 47.9981 0 43.5209 0 37.9981V10Z" fill="#01A7AD" fill-opacity="0.15"/>
<path d="M26 29.9995V17.9995C26 17.4691 25.7893 16.9604 25.4142 16.5853C25.0391 16.2102 24.5304 15.9995 24 15.9995H16C15.4696 15.9995 14.9609 16.2102 14.5858 16.5853C14.2107 16.9604 14 17.4691 14 17.9995V28.9995C14 29.2647 14.1054 29.5191 14.2929 29.7066C14.4804 29.8942 14.7348 29.9995 15 29.9995H17" stroke="#01A7AD" stroke-width="1.99992" stroke-linecap="round" stroke-linejoin="round"/>
<path d="M27 29.9988H21" stroke="#01A7AD" stroke-width="1.99992" stroke-linecap="round" stroke-linejoin="round"/>
<path d="M30.999 29.9991H32.999C33.2642 29.9991 33.5186 29.8938 33.7061 29.7063C33.8937 29.5187 33.999 29.2644 33.999 28.9991V25.3491C33.9986 25.1222 33.921 24.9022 33.779 24.7251L30.299 20.3751C30.2055 20.258 30.0868 20.1634 29.9518 20.0983C29.8168 20.0333 29.6689 19.9994 29.519 19.9991H25.999" stroke="#01A7AD" stroke-width="1.99992" stroke-linecap="round" stroke-linejoin="round"/>
<path d="M28.999 31.9989C30.1036 31.9989 30.999 31.1035 30.999 29.9989C30.999 28.8943 30.1036 27.9989 28.999 27.9989C27.8945 27.9989 26.999 28.8943 26.999 29.9989C26.999 31.1035 27.8945 31.9989 28.999 31.9989Z" stroke="#01A7AD" stroke-width="1.99992" stroke-linecap="round" stroke-linejoin="round"/>
<path d="M19 31.9989C20.1046 31.9989 21 31.1035 21 29.9989C21 28.8943 20.1046 27.9989 19 27.9989C17.8954 27.9989 17 28.8943 17 29.9989C17 31.1035 17.8954 31.9989 19 31.9989Z" stroke="#01A7AD" stroke-width="1.99992" stroke-linecap="round" stroke-linejoin="round"/>
</svg>
