<svg width="40" height="40" viewBox="0 0 40 40" fill="none" xmlns="http://www.w3.org/2000/svg">
<path d="M0 10C0 4.47716 4.47715 0 10 0H29.9939C35.5168 0 39.9939 4.47715 39.9939 10V29.9939C39.9939 35.5168 35.5168 39.9939 29.9939 39.9939H10C4.47716 39.9939 0 35.5168 0 29.9939V10Z" fill="#01A7AD" fill-opacity="0.15"/>
<path d="M25.8294 15.831V13.3314C25.8294 13.1104 25.7416 12.8985 25.5853 12.7422C25.4291 12.586 25.2171 12.4982 24.9962 12.4982H14.1645C13.7225 12.4982 13.2986 12.6737 12.9861 12.9863C12.6736 13.2988 12.498 13.7226 12.498 14.1646C12.498 14.6065 12.6736 15.0304 12.9861 15.3429C13.2986 15.6554 13.7225 15.831 14.1645 15.831H26.6626C26.8835 15.831 27.0955 15.9188 27.2517 16.075C27.408 16.2313 27.4958 16.4432 27.4958 16.6642V19.997M27.4958 19.997H24.9962C24.5542 19.997 24.1303 20.1726 23.8178 20.4851C23.5053 20.7976 23.3297 21.2215 23.3297 21.6634C23.3297 22.1054 23.5053 22.5293 23.8178 22.8418C24.1303 23.1543 24.5542 23.3299 24.9962 23.3299H27.4958C27.7168 23.3299 27.9287 23.2421 28.0849 23.0858C28.2412 22.9296 28.329 22.7176 28.329 22.4967V20.8302C28.329 20.6093 28.2412 20.3973 28.0849 20.2411C27.9287 20.0848 27.7168 19.997 27.4958 19.997Z" stroke="#01A7AD" stroke-width="1.66641" stroke-linecap="round" stroke-linejoin="round"/>
<path d="M12.498 14.1646V25.8295C12.498 26.2714 12.6736 26.6953 12.9861 27.0078C13.2986 27.3203 13.7225 27.4959 14.1645 27.4959H26.6626C26.8835 27.4959 27.0955 27.4081 27.2517 27.2518C27.408 27.0956 27.4958 26.8836 27.4958 26.6627V23.3298" stroke="#01A7AD" stroke-width="1.66641" stroke-linecap="round" stroke-linejoin="round"/>
</svg>
