<svg width="96" height="96" viewBox="0 0 96 96" fill="none" xmlns="http://www.w3.org/2000/svg">
<path d="M0 48C0 21.4903 21.4903 0 48 0C74.5097 0 96 21.4903 96 48C96 74.5097 74.5097 96 48 96C21.4903 96 0 74.5097 0 48Z" fill="#DCFCE7"/>
<path d="M48.0002 67.9993C59.0454 67.9993 67.9994 59.0453 67.9994 48.0001C67.9994 36.9548 59.0454 28.0009 48.0002 28.0009C36.9549 28.0009 28.001 36.9548 28.001 48.0001C28.001 59.0453 36.9549 67.9993 48.0002 67.9993Z" stroke="#00A63E" stroke-width="3.99984" stroke-linecap="round" stroke-linejoin="round"/>
<path d="M42 48L45.9998 51.9998L53.9995 44.0001" stroke="#00A63E" stroke-width="3.99984" stroke-linecap="round" stroke-linejoin="round"/>
</svg>
