<svg width="40" height="40" viewBox="0 0 40 40" fill="none" xmlns="http://www.w3.org/2000/svg">
<path d="M0 10C0 4.47716 4.47715 0 10 0H29.9939C35.5168 0 39.9939 4.47715 39.9939 10V29.9939C39.9939 35.5168 35.5168 39.9939 29.9939 39.9939H10C4.47716 39.9939 0 35.5168 0 29.9939V10Z" fill="#DBEAFE"/>
<path d="M26.6618 14.1646H13.3305C12.4101 14.1646 11.6641 14.9106 11.6641 15.831V24.163C11.6641 25.0834 12.4101 25.8295 13.3305 25.8295H26.6618C27.5821 25.8295 28.3282 25.0834 28.3282 24.163V15.831C28.3282 14.9106 27.5821 14.1646 26.6618 14.1646Z" stroke="#155DFC" stroke-width="1.66641" stroke-linecap="round" stroke-linejoin="round"/>
<path d="M11.6641 18.3306H28.3282" stroke="#155DFC" stroke-width="1.66641" stroke-linecap="round" stroke-linejoin="round"/>
</svg>
