<svg width="30" height="30" viewBox="0 0 30 30" fill="none" xmlns="http://www.w3.org/2000/svg">
<path d="M5.49774 12.1851C5.30336 12.367 5.1936 12.6287 5.1936 12.9078V25.0962C5.1936 25.622 5.58464 26.0482 6.06714 26.0482H11.242C11.7245 26.0482 12.1155 25.622 12.1155 25.0962V20.0125C12.1155 18.3454 13.355 16.9947 14.8848 16.9947C16.4146 16.9947 17.654 18.3454 17.654 20.0125V25.0962C17.654 25.622 18.045 26.0482 18.5275 26.0482H23.7024C24.1849 26.0482 24.576 25.622 24.576 25.0962V12.9078C24.576 12.6312 24.4639 12.367 24.2718 12.1851L15.4542 3.94897C15.1272 3.64494 14.6447 3.64494 14.3177 3.94897L5.50002 12.1851H5.49774Z" fill="#36404D"/>
</svg>
