<svg width="16" height="16" viewBox="0 0 16 16" fill="none" xmlns="http://www.w3.org/2000/svg">
<path d="M13.3293 6.66452C13.3293 9.99213 9.63779 13.4577 8.39819 14.528C8.28271 14.6148 8.14214 14.6618 7.99765 14.6618C7.85316 14.6618 7.71259 14.6148 7.59711 14.528C6.35751 13.4577 2.66602 9.99213 2.66602 6.66452C2.66602 5.25048 3.22774 3.89436 4.22762 2.89449C5.22749 1.89461 6.58361 1.33289 7.99765 1.33289C9.41169 1.33289 10.7678 1.89461 11.7677 2.89449C12.7676 3.89436 13.3293 5.25048 13.3293 6.66452Z" stroke="#36404D" stroke-width="1.33291" stroke-linecap="round" stroke-linejoin="round"/>
<path d="M7.99741 8.66389C9.10163 8.66389 9.99677 7.76874 9.99677 6.66452C9.99677 5.56031 9.10163 4.66516 7.99741 4.66516C6.89319 4.66516 5.99805 5.56031 5.99805 6.66452C5.99805 7.76874 6.89319 8.66389 7.99741 8.66389Z" stroke="#36404D" stroke-width="1.33291" stroke-linecap="round" stroke-linejoin="round"/>
</svg>
