<svg width="24" height="30" viewBox="0 0 24 30" fill="none" xmlns="http://www.w3.org/2000/svg">
<g clip-path="url(#clip0_730_114)">
<path d="M6.34671 9.82782L1.76439 17.3932L3.01678 18.1654L7.5991 10.6L6.34671 9.82782Z" fill="white"/>
<path d="M17.8907 16.9482L13.3084 24.5136L14.5608 25.2858L19.1431 17.7205L17.8907 16.9482Z" fill="white"/>
<path d="M12.5989 25.6767C10.8471 28.4856 7.16825 29.3646 4.35113 27.6305C1.534 25.8965 0.634417 22.1895 2.31049 19.3328L1.0558 18.5589C-1.04165 22.113 0.0804617 26.7325 3.58411 28.8917C7.08776 31.0509 11.6756 29.9522 13.8489 26.4458L12.5942 25.6719L12.5989 25.6767Z" fill="white"/>
<path d="M16.4008 19.3996L21.6515 10.734C23.3844 7.87257 22.4895 4.12257 19.6487 2.36939C16.8127 0.620982 13.096 1.52385 11.3583 4.39009L6.11234 13.0557L4.85765 12.2818L10.1084 3.61621C12.2627 0.0572883 16.8837 -1.06532 20.411 1.10824C23.9383 3.28181 25.0557 7.94901 22.8967 11.5079L17.646 20.1735L16.3913 19.3996H16.4008Z" fill="white"/>
<path d="M21.3533 11.2213L21.3438 11.2404C19.611 14.1019 15.8942 15.0095 13.0534 13.2611C11.3821 12.234 10.3878 10.5095 10.2032 8.67989L9.10474 10.4952C9.64922 12.1146 10.7335 13.5621 12.2912 14.5222C15.8185 16.6958 20.4395 15.5732 22.5985 12.0143L22.608 11.9952L21.3533 11.2213Z" fill="white"/>
<path d="M11.0179 3.11295L10.2526 4.37656L20.3041 10.5743L21.0694 9.31064L11.0179 3.11295Z" fill="white"/>
</g>
<defs>
<clipPath id="clip0_730_114">
<rect width="24" height="30" fill="white"/>
</clipPath>
</defs>
</svg>
