<svg width="48" height="59" viewBox="0 0 48 59" fill="none" xmlns="http://www.w3.org/2000/svg">
<g clip-path="url(#clip0_136_110)">
<path d="M12.6934 19.328L3.52881 34.2065L6.0336 35.7252L15.1982 20.8467L12.6934 19.328Z" fill="white"/>
<path d="M35.7815 33.3315L26.6168 48.2101L29.1216 49.7288L38.2862 34.8502L35.7815 33.3315Z" fill="white"/>
<path d="M25.1978 50.4976C21.6942 56.0218 14.3365 57.7504 8.70225 54.3401C3.06801 50.9297 1.26883 43.6393 4.62098 38.0211L2.1116 36.4991C-2.08331 43.489 0.160923 52.5738 7.16822 56.8203C14.1755 61.0668 23.3513 58.906 27.6977 52.0101L25.1883 50.4882L25.1978 50.4976Z" fill="white"/>
<path d="M32.8015 38.1527L43.303 21.1103C46.7688 15.4828 44.9791 8.1078 39.2975 4.65987C33.6254 1.22134 26.192 2.99697 22.7167 8.63391L12.2247 25.6763L9.71533 24.1543L20.2168 7.11194C24.5254 0.112737 33.7674 -2.09507 40.8221 2.17962C47.8767 6.4543 50.1115 15.6331 45.7935 22.6323L35.292 39.6747L32.7826 38.1527H32.8015Z" fill="white"/>
<path d="M42.7066 22.0685L42.6877 22.1061C39.2219 27.7337 31.7885 29.5187 26.1069 26.0801C22.7642 24.0602 20.7757 20.6687 20.4064 17.0704L18.2095 20.6405C19.2984 23.8254 21.4669 26.672 24.5823 28.5604C31.637 32.8351 40.879 30.6273 45.197 23.6281L45.216 23.5905L42.7066 22.0685Z" fill="white"/>
<path d="M22.0359 6.1222L20.5051 8.6073L40.6081 20.7961L42.1388 18.311L22.0359 6.1222Z" fill="white"/>
</g>
<defs>
<clipPath id="clip0_136_110">
<rect width="48" height="59" fill="white"/>
</clipPath>
</defs>
</svg>
