<svg width="56" height="56" viewBox="0 0 56 56" fill="none" xmlns="http://www.w3.org/2000/svg">
<path d="M0 16C0 7.16344 7.16344 0 16 0H40C48.8366 0 56 7.16344 56 16V40C56 48.8366 48.8366 56 40 56H16C7.16344 56 0 48.8366 0 40V16Z" fill="#00C950" fill-opacity="0.09"/>
<path d="M27.9999 39.6668C34.4432 39.6668 39.6666 34.4435 39.6666 28.0002C39.6666 21.5568 34.4432 16.3335 27.9999 16.3335C21.5566 16.3335 16.3333 21.5568 16.3333 28.0002C16.3333 34.4435 21.5566 39.6668 27.9999 39.6668Z" stroke="#7DD3C0" stroke-width="2.33333" stroke-linecap="round" stroke-linejoin="round"/>
<path d="M24.5 27.9998L26.8333 30.3332L31.5 25.6665" stroke="#7DD3C0" stroke-width="2.33333" stroke-linecap="round" stroke-linejoin="round"/>
</svg>
