<svg width="48" height="48" viewBox="0 0 48 48" fill="none" xmlns="http://www.w3.org/2000/svg">
<path d="M0 16C0 7.16344 7.16344 0 16 0H32C40.8366 0 48 7.16344 48 16V32C48 40.8366 40.8366 48 32 48H16C7.16344 48 0 40.8366 0 32V16Z" fill="#0053AD" fill-opacity="0.1"/>
<path d="M27 14H18C17.4696 14 16.9609 14.2107 16.5858 14.5858C16.2107 14.9609 16 15.4696 16 16V32C16 32.5304 16.2107 33.0391 16.5858 33.4142C16.9609 33.7893 17.4696 34 18 34H30C30.5304 34 31.0391 33.7893 31.4142 33.4142C31.7893 33.0391 32 32.5304 32 32V19L27 14Z" stroke="#0053AD" stroke-width="2" stroke-linecap="round" stroke-linejoin="round"/>
<path d="M26 14V18C26 18.5304 26.2107 19.0391 26.5858 19.4142C26.9609 19.7893 27.4696 20 28 20H32" stroke="#0053AD" stroke-width="2" stroke-linecap="round" stroke-linejoin="round"/>
<path d="M22 21H20" stroke="#0053AD" stroke-width="2" stroke-linecap="round" stroke-linejoin="round"/>
<path d="M28 25H20" stroke="#0053AD" stroke-width="2" stroke-linecap="round" stroke-linejoin="round"/>
<path d="M28 29H20" stroke="#0053AD" stroke-width="2" stroke-linecap="round" stroke-linejoin="round"/>
</svg>
