<svg width="48" height="48" viewBox="0 0 48 48" fill="none" xmlns="http://www.w3.org/2000/svg">
<path d="M0 14C0 6.26801 6.26801 0 14 0H34C41.732 0 48 6.26801 48 14V34C48 41.732 41.732 48 34 48H14C6.26801 48 0 41.732 0 34V14Z" fill="#00585E"/>
<path d="M22.5 32.5L32.5 22.5C32.9673 22.0421 33.3391 21.4961 33.5941 20.8935C33.849 20.291 33.982 19.6439 33.9853 18.9896C33.9886 18.3354 33.8622 17.687 33.6133 17.0819C33.3645 16.4768 32.9982 15.9271 32.5355 15.4645C32.0729 15.0018 31.5232 14.6355 30.9181 14.3867C30.313 14.1378 29.6646 14.0114 29.0104 14.0147C28.3561 14.018 27.709 14.151 27.1065 14.4059C26.5039 14.6609 25.9579 15.0327 25.5 15.5L15.5 25.5C15.0327 25.9579 14.6609 26.5039 14.4059 27.1065C14.151 27.709 14.018 28.3561 14.0147 29.0104C14.0114 29.6646 14.1378 30.313 14.3867 30.9181C14.6355 31.5232 15.0018 32.0729 15.4645 32.5355C15.9271 32.9982 16.4768 33.3645 17.0819 33.6133C17.687 33.8622 18.3354 33.9886 18.9896 33.9853C19.6439 33.982 20.291 33.849 20.8935 33.5941C21.4961 33.3391 22.0421 32.9673 22.5 32.5Z" stroke="white" stroke-width="2" stroke-linecap="round" stroke-linejoin="round"/>
<path d="M20.5 20.5L27.5 27.5" stroke="white" stroke-width="2" stroke-linecap="round" stroke-linejoin="round"/>
</svg>
