<svg width="48" height="48" viewBox="0 0 48 48" fill="none" xmlns="http://www.w3.org/2000/svg">
<path d="M0 16C0 7.16344 7.16344 0 16 0H32C40.8366 0 48 7.16344 48 16V32C48 40.8366 40.8366 48 32 48H16C7.16344 48 0 40.8366 0 32V16Z" fill="#EF4444" fill-opacity="0.082"/>
<path d="M32.108 29L25.4414 17.3333C25.296 17.0768 25.0852 16.8635 24.8305 16.715C24.5757 16.5666 24.2862 16.4884 23.9914 16.4884C23.6965 16.4884 23.407 16.5666 23.1523 16.715C22.8975 16.8635 22.6867 17.0768 22.5414 17.3333L15.8747 29C15.7278 29.2544 15.6507 29.5432 15.6514 29.8371C15.652 30.1309 15.7303 30.4194 15.8784 30.6732C16.0265 30.927 16.239 31.1371 16.4944 31.2823C16.7499 31.4275 17.0392 31.5026 17.333 31.5H30.6664C30.9588 31.4997 31.246 31.4225 31.4991 31.2761C31.7522 31.1297 31.9624 30.9192 32.1085 30.6659C32.2545 30.4126 32.3314 30.1253 32.3313 29.8329C32.3312 29.5405 32.2542 29.2532 32.108 29Z" stroke="#EF4444" stroke-width="1.66667" stroke-linecap="round" stroke-linejoin="round"/>
<path d="M24 21.5V24.8333" stroke="#EF4444" stroke-width="1.66667" stroke-linecap="round" stroke-linejoin="round"/>
<path d="M24 28.1666H24.0083" stroke="#EF4444" stroke-width="1.66667" stroke-linecap="round" stroke-linejoin="round"/>
</svg>
