<svg width="111" height="120" viewBox="0 0 111 120" fill="none" xmlns="http://www.w3.org/2000/svg">
<path d="M67.8635 87.7988C60.4644 100.246 44.3693 104.485 31.7959 97.226C19.2226 89.9668 14.8461 73.9086 21.9265 61.277L16.3304 58.0461C7.47083 73.7595 12.9099 93.7846 28.5647 102.823C44.2194 111.861 64.2811 106.559 73.4595 91.0296L67.8635 87.7988Z" fill="white"/>
<path d="M104.794 23.8328L104.753 23.9036C97.4419 36.5672 81.1737 40.9424 68.4941 33.6218C61.0386 29.3174 56.4634 21.9056 55.4465 13.9742L50.8041 22.0151C53.3698 29.0224 58.3032 35.2004 65.2628 39.2185C81.0238 48.3181 101.231 42.8873 110.321 27.142L110.362 27.0711L104.766 23.8403L104.794 23.8328Z" fill="white"/>
<path d="M76.4082 85.9234L110.429 26.998L109.774 26.6197L104.833 23.7671L70.8121 82.6926L76.4082 85.9234Z" fill="white"/>
</svg>
