<svg width="76" height="76" viewBox="0 0 76 76" fill="none" xmlns="http://www.w3.org/2000/svg">
<path d="M0 38C0 17.0132 17.0132 0 38 0C58.9868 0 76 17.0132 76 38C76 58.9868 58.9868 76 38 76C17.0132 76 0 58.9868 0 38Z" fill="#DCFCE7"/>
<path d="M38.0002 53.8329C46.7443 53.8329 53.8329 46.7443 53.8329 38.0002C53.8329 29.256 46.7443 22.1675 38.0002 22.1675C29.256 22.1675 22.1675 29.256 22.1675 38.0002C22.1675 46.7443 29.256 53.8329 38.0002 53.8329Z" stroke="#00A63E" stroke-width="3.16654" stroke-linecap="round" stroke-linejoin="round"/>
<path d="M33.2505 38L36.417 41.1666L42.7501 34.8335" stroke="#00A63E" stroke-width="3.16654" stroke-linecap="round" stroke-linejoin="round"/>
</svg>
